<svg width="170" height="48" viewBox="0 0 170 48" fill="none" xmlns="http://www.w3.org/2000/svg">
<rect x="0.75" y="19.2002" width="9.59998" height="9.59999" fill="#039855"/>
<rect x="29.5499" y="28.7998" width="9.6" height="9.59999" transform="rotate(180 29.5499 28.7998)" fill="#027A48"/>
<path d="M10.35 19.2001L19.95 9.6001V19.2001L10.35 28.8001V19.2001Z" fill="#A6F4C5"/>
<path d="M19.95 28.7999L10.35 38.3999L10.35 28.7999L19.95 19.1999L19.95 28.7999Z" fill="#6CE9A6"/>
<path d="M0.75 19.2L19.95 0V9.59999L10.35 19.2H0.75Z" fill="#32D583"/>
<path d="M29.5499 28.8L10.3499 48L10.3499 38.4L19.9499 28.8L29.5499 28.8Z" fill="#12B76A"/>
<path d="M50.458 34.2798C48.946 34.2798 47.4806 34.0651 46.062 33.6358C44.662 33.2065 43.5513 32.6371 42.73 31.9278L43.99 29.0998C44.7926 29.7345 45.7726 30.2571 46.93 30.6678C48.106 31.0598 49.282 31.2558 50.458 31.2558C51.914 31.2558 52.9966 31.0225 53.706 30.5558C54.434 30.0891 54.798 29.4731 54.798 28.7078C54.798 28.1478 54.5926 27.6905 54.182 27.3358C53.79 26.9625 53.286 26.6731 52.67 26.4678C52.054 26.2625 51.214 26.0291 50.15 25.7678C48.6566 25.4131 47.4433 25.0585 46.51 24.7038C45.5953 24.3491 44.802 23.7985 44.13 23.0518C43.4766 22.2865 43.15 21.2598 43.15 19.9718C43.15 18.8891 43.4393 17.9091 44.018 17.0318C44.6153 16.1358 45.502 15.4265 46.678 14.9038C47.8726 14.3811 49.3286 14.1198 51.046 14.1198C52.2406 14.1198 53.4166 14.2691 54.574 14.5678C55.7313 14.8665 56.73 15.2958 57.57 15.8558L56.422 18.6838C55.5633 18.1798 54.6673 17.7971 53.734 17.5358C52.8006 17.2745 51.8953 17.1438 51.018 17.1438C49.5806 17.1438 48.5073 17.3865 47.798 17.8718C47.1073 18.3571 46.762 19.0011 46.762 19.8038C46.762 20.3638 46.958 20.8211 47.35 21.1758C47.7606 21.5305 48.274 21.8105 48.89 22.0158C49.506 22.2211 50.346 22.4545 51.41 22.7158C52.866 23.0518 54.0606 23.4065 54.994 23.7798C55.9273 24.1345 56.7206 24.6851 57.374 25.4318C58.046 26.1785 58.382 27.1865 58.382 28.4558C58.382 29.5385 58.0833 30.5185 57.486 31.3958C56.9073 32.2731 56.0206 32.9731 54.826 33.4958C53.6313 34.0185 52.1753 34.2798 50.458 34.2798Z" fill="#101828"/>
<path d="M61.6553 19.0478H65.1553V33.9998H61.6553V19.0478ZM63.4193 16.5838C62.7847 16.5838 62.2527 16.3878 61.8233 15.9958C61.394 15.5851 61.1793 15.0811 61.1793 14.4838C61.1793 13.8865 61.394 13.3918 61.8233 12.9998C62.2527 12.5891 62.7847 12.3838 63.4193 12.3838C64.054 12.3838 64.586 12.5798 65.0153 12.9718C65.4447 13.3451 65.6593 13.8211 65.6593 14.3998C65.6593 15.0158 65.4447 15.5385 65.0153 15.9678C64.6047 16.3785 64.0727 16.5838 63.4193 16.5838Z" fill="#101828"/>
<path d="M74.3691 34.1958C73.1558 34.1958 71.9704 34.0371 70.8131 33.7198C69.6558 33.4025 68.7318 33.0011 68.0411 32.5158L69.3851 29.8558C70.0571 30.3038 70.8598 30.6678 71.7931 30.9478C72.7451 31.2091 73.6784 31.3398 74.5931 31.3398C76.6838 31.3398 77.7291 30.7891 77.7291 29.6878C77.7291 29.1651 77.4584 28.8011 76.9171 28.5958C76.3944 28.3905 75.5451 28.1945 74.3691 28.0078C73.1371 27.8211 72.1291 27.6065 71.3451 27.3638C70.5798 27.1211 69.9078 26.7011 69.3291 26.1038C68.7691 25.4878 68.4891 24.6385 68.4891 23.5558C68.4891 22.1371 69.0771 21.0078 70.2531 20.1678C71.4478 19.3091 73.0531 18.8798 75.0691 18.8798C76.0958 18.8798 77.1224 19.0011 78.1491 19.2438C79.1758 19.4678 80.0158 19.7758 80.6691 20.1678L79.3251 22.8278C78.0558 22.0811 76.6278 21.7078 75.0411 21.7078C74.0144 21.7078 73.2304 21.8665 72.6891 22.1838C72.1664 22.4825 71.9051 22.8838 71.9051 23.3878C71.9051 23.9478 72.1851 24.3491 72.7451 24.5918C73.3238 24.8158 74.2104 25.0305 75.4051 25.2358C76.5998 25.4225 77.5798 25.6371 78.3451 25.8798C79.1104 26.1225 79.7638 26.5331 80.3051 27.1118C80.8651 27.6905 81.1451 28.5118 81.1451 29.5758C81.1451 30.9758 80.5384 32.0958 79.3251 32.9358C78.1118 33.7758 76.4598 34.1958 74.3691 34.1958Z" fill="#101828"/>
<path d="M97.8858 19.0478L90.8858 35.2038C90.2325 36.8278 89.4391 37.9665 88.5058 38.6198C87.5725 39.2918 86.4431 39.6278 85.1178 39.6278C84.3711 39.6278 83.6338 39.5065 82.9058 39.2638C82.1778 39.0211 81.5805 38.6851 81.1138 38.2558L82.5138 35.6798C82.8498 35.9971 83.2418 36.2491 83.6898 36.4358C84.1565 36.6225 84.6231 36.7158 85.0898 36.7158C85.7058 36.7158 86.2098 36.5571 86.6018 36.2398C87.0125 35.9225 87.3858 35.3905 87.7218 34.6438L87.9738 34.0558L81.4498 19.0478H85.0898L89.7938 30.1078L94.5258 19.0478H97.8858Z" fill="#101828"/>
<path d="M108.361 18.8798C109.817 18.8798 111.115 19.1971 112.253 19.8318C113.411 20.4665 114.316 21.3625 114.969 22.5198C115.623 23.6771 115.949 25.0118 115.949 26.5238C115.949 28.0358 115.623 29.3798 114.969 30.5558C114.316 31.7131 113.411 32.6091 112.253 33.2438C111.115 33.8785 109.817 34.1958 108.361 34.1958C106.345 34.1958 104.749 33.5238 103.573 32.1798V39.4318H100.073V19.0478H103.405V21.0078C103.984 20.2985 104.693 19.7665 105.533 19.4118C106.392 19.0571 107.335 18.8798 108.361 18.8798ZM107.969 31.1998C109.257 31.1998 110.312 30.7705 111.133 29.9118C111.973 29.0531 112.393 27.9238 112.393 26.5238C112.393 25.1238 111.973 23.9945 111.133 23.1358C110.312 22.2771 109.257 21.8478 107.969 21.8478C107.129 21.8478 106.373 22.0438 105.701 22.4358C105.029 22.8091 104.497 23.3505 104.105 24.0598C103.713 24.7691 103.517 25.5905 103.517 26.5238C103.517 27.4571 103.713 28.2785 104.105 28.9878C104.497 29.6971 105.029 30.2478 105.701 30.6398C106.373 31.0131 107.129 31.1998 107.969 31.1998Z" fill="#101828"/>
<path d="M127.753 18.8798C129.638 18.8798 131.15 19.4305 132.289 20.5318C133.427 21.6331 133.997 23.2665 133.997 25.4318V33.9998H130.497V25.8798C130.497 24.5731 130.189 23.5931 129.573 22.9398C128.957 22.2678 128.079 21.9318 126.941 21.9318C125.653 21.9318 124.635 22.3238 123.889 23.1078C123.142 23.8731 122.769 24.9838 122.769 26.4398V33.9998H119.269V13.2238H122.769V20.7838C123.347 20.1678 124.057 19.7011 124.897 19.3838C125.755 19.0478 126.707 18.8798 127.753 18.8798Z" fill="#101828"/>
<path d="M152.913 19.0478V33.9998H149.581V32.0958C149.021 32.7678 148.321 33.2905 147.481 33.6638C146.641 34.0185 145.735 34.1958 144.765 34.1958C142.767 34.1958 141.19 33.6451 140.033 32.5438C138.894 31.4238 138.325 29.7718 138.325 27.5878V19.0478H141.825V27.1118C141.825 28.4558 142.123 29.4638 142.721 30.1358C143.337 30.7891 144.205 31.1158 145.325 31.1158C146.575 31.1158 147.565 30.7331 148.293 29.9678C149.039 29.1838 149.413 28.0638 149.413 26.6078V19.0478H152.913Z" fill="#101828"/>
<path d="M162.115 34.1958C160.902 34.1958 159.716 34.0371 158.559 33.7198C157.402 33.4025 156.478 33.0011 155.787 32.5158L157.131 29.8558C157.803 30.3038 158.606 30.6678 159.539 30.9478C160.491 31.2091 161.424 31.3398 162.339 31.3398C164.43 31.3398 165.475 30.7891 165.475 29.6878C165.475 29.1651 165.204 28.8011 164.663 28.5958C164.14 28.3905 163.291 28.1945 162.115 28.0078C160.883 27.8211 159.875 27.6065 159.091 27.3638C158.326 27.1211 157.654 26.7011 157.075 26.1038C156.515 25.4878 156.235 24.6385 156.235 23.5558C156.235 22.1371 156.823 21.0078 157.999 20.1678C159.194 19.3091 160.799 18.8798 162.815 18.8798C163.842 18.8798 164.868 19.0011 165.895 19.2438C166.922 19.4678 167.762 19.7758 168.415 20.1678L167.071 22.8278C165.802 22.0811 164.374 21.7078 162.787 21.7078C161.76 21.7078 160.976 21.8665 160.435 22.1838C159.912 22.4825 159.651 22.8838 159.651 23.3878C159.651 23.9478 159.931 24.3491 160.491 24.5918C161.07 24.8158 161.956 25.0305 163.151 25.2358C164.346 25.4225 165.326 25.6371 166.091 25.8798C166.856 26.1225 167.51 26.5331 168.051 27.1118C168.611 27.6905 168.891 28.5118 168.891 29.5758C168.891 30.9758 168.284 32.0958 167.071 32.9358C165.858 33.7758 164.206 34.1958 162.115 34.1958Z" fill="#101828"/>
</svg>
