<svg width="184" height="48" viewBox="0 0 184 48" fill="none" xmlns="http://www.w3.org/2000/svg">
<path d="M16.2143 33.4284C24.893 33.4284 31.9285 26.3929 31.9285 17.7141C31.9285 16.7306 31.8382 15.7681 31.6653 14.8345C30.7318 14.6617 29.7693 14.5713 28.7857 14.5713C20.1069 14.5713 13.0714 21.6068 13.0714 30.2856C13.0714 31.2692 13.1618 32.2317 13.3347 33.1652C14.2682 33.3381 15.2307 33.4284 16.2143 33.4284Z" fill="#175CD3"/>
<path fill-rule="evenodd" clip-rule="evenodd" d="M13.3347 33.1653C6.03118 31.8127 0.5 25.4095 0.5 17.7143C0.5 9.03553 7.53553 2 16.2143 2C23.9095 2 30.3128 7.53118 31.6653 14.8347C30.7318 14.6618 29.7693 14.5714 28.7857 14.5714C20.107 14.5714 13.0714 21.607 13.0714 30.2857C13.0714 31.2693 13.1618 32.2318 13.3347 33.1653Z" fill="#1570EF"/>
<path fill-rule="evenodd" clip-rule="evenodd" d="M16.2142 33.4284C24.893 33.4284 31.9285 26.3928 31.9285 17.7141C31.9285 16.7305 31.8381 15.768 31.6652 14.8345C38.9687 16.187 44.4999 22.5903 44.4999 30.2855C44.4999 38.9643 37.4644 45.9998 28.7856 45.9998C21.0905 45.9998 14.6872 40.4686 13.3346 33.1651C14.2681 33.338 15.2306 33.4284 16.2142 33.4284Z" fill="#2E90FA"/>
<path d="M74.728 28.9042C74.168 30.7148 73.188 32.0682 71.788 32.9642C70.388 33.8415 68.7547 34.2802 66.888 34.2802C65.0587 34.2802 63.472 33.8975 62.128 33.1322C60.8027 32.3668 59.776 31.2748 59.048 29.8562C58.3387 28.4375 57.984 26.7388 57.984 24.7602C57.984 22.7815 58.348 21.0828 59.076 19.6642C59.804 18.2455 60.8307 17.1535 62.156 16.3882C63.4813 15.6228 65.04 15.2402 66.832 15.2402C68.7173 15.2402 70.332 15.6415 71.676 16.4442C73.0387 17.2282 73.972 18.4228 74.476 20.0282L70.976 21.5122C70.6587 20.3922 70.1733 19.5988 69.52 19.1322C68.8667 18.6468 68.0267 18.4042 67 18.4042C65.4693 18.4042 64.2467 18.9548 63.332 20.0562C62.436 21.1388 61.988 22.7068 61.988 24.7602C61.988 26.7948 62.4173 28.3628 63.276 29.4642C64.1347 30.5655 65.376 31.1162 67 31.1162C68.008 31.1162 68.876 30.8455 69.604 30.3042C70.3507 29.7628 70.8733 28.9415 71.172 27.8402L74.728 28.9042Z" fill="#101828"/>
<path d="M79.5613 17.9842C77.9746 17.9842 77.1813 17.3028 77.1813 15.9402C77.1813 14.5588 77.9746 13.8682 79.5613 13.8682C81.148 13.8682 81.9413 14.5588 81.9413 15.9402C81.9413 17.3028 81.148 17.9842 79.5613 17.9842ZM81.4653 20.0002V34.0002H77.6293V20.0002H81.4653Z" fill="#101828"/>
<path d="M85.5316 34.0002V20.0002H88.8636L89.1156 22.7442C89.4703 21.7922 90.0023 21.0548 90.7116 20.5322C91.4396 19.9908 92.3543 19.7202 93.4556 19.7202C94.109 19.7202 94.613 19.8228 94.9676 20.0282L94.5196 23.2482C94.333 23.1922 94.0996 23.1455 93.8196 23.1082C93.5583 23.0522 93.213 23.0242 92.7836 23.0242C92.205 23.0242 91.6543 23.1642 91.1316 23.4442C90.6276 23.7055 90.2076 24.1162 89.8716 24.6762C89.5356 25.2175 89.3676 25.9082 89.3676 26.7482V34.0002H85.5316Z" fill="#101828"/>
<path d="M103.427 19.7202C105.293 19.7202 106.74 20.1215 107.767 20.9242C108.812 21.7268 109.503 22.6975 109.839 23.8362L106.255 25.1242C105.881 23.4255 104.957 22.5762 103.483 22.5762C102.419 22.5762 101.588 22.9495 100.991 23.6962C100.412 24.4428 100.123 25.5535 100.123 27.0282C100.123 28.5215 100.421 29.6322 101.019 30.3602C101.635 31.0695 102.465 31.4242 103.511 31.4242C105.135 31.4242 106.105 30.5935 106.423 28.9322L109.895 30.0522C109.577 31.3028 108.868 32.3202 107.767 33.1042C106.684 33.8882 105.275 34.2802 103.539 34.2802C102.083 34.2802 100.804 33.9908 99.7027 33.4122C98.62 32.8335 97.78 32.0028 97.1827 30.9202C96.5854 29.8375 96.2867 28.5308 96.2867 27.0002C96.2867 25.4695 96.5854 24.1628 97.1827 23.0802C97.7987 21.9975 98.6387 21.1668 99.7027 20.5882C100.785 20.0095 102.027 19.7202 103.427 19.7202Z" fill="#101828"/>
<path d="M119.259 19.7202C120.659 19.7202 121.901 20.0095 122.983 20.5882C124.066 21.1668 124.906 21.9975 125.503 23.0802C126.119 24.1628 126.427 25.4695 126.427 27.0002C126.427 28.5308 126.119 29.8375 125.503 30.9202C124.906 32.0028 124.066 32.8335 122.983 33.4122C121.901 33.9908 120.659 34.2802 119.259 34.2802C117.841 34.2802 116.59 33.9908 115.507 33.4122C114.443 32.8335 113.603 32.0028 112.987 30.9202C112.39 29.8375 112.091 28.5308 112.091 27.0002C112.091 25.4695 112.39 24.1628 112.987 23.0802C113.603 21.9975 114.443 21.1668 115.507 20.5882C116.59 20.0095 117.841 19.7202 119.259 19.7202ZM119.259 22.5762C118.214 22.5762 117.393 22.9495 116.795 23.6962C116.217 24.4242 115.927 25.5255 115.927 27.0002C115.927 28.4748 116.217 29.5855 116.795 30.3322C117.393 31.0602 118.214 31.4242 119.259 31.4242C120.286 31.4242 121.089 31.0602 121.667 30.3322C122.265 29.5855 122.563 28.4748 122.563 27.0002C122.563 25.5255 122.265 24.4242 121.667 23.6962C121.089 22.9495 120.286 22.5762 119.259 22.5762Z" fill="#101828"/>
<path d="M136.021 19.7202C137.421 19.7202 138.662 20.0095 139.745 20.5882C140.828 21.1668 141.668 21.9975 142.265 23.0802C142.881 24.1628 143.189 25.4695 143.189 27.0002C143.189 28.5308 142.881 29.8375 142.265 30.9202C141.668 32.0028 140.828 32.8335 139.745 33.4122C138.662 33.9908 137.421 34.2802 136.021 34.2802C134.602 34.2802 133.352 33.9908 132.269 33.4122C131.205 32.8335 130.365 32.0028 129.749 30.9202C129.152 29.8375 128.853 28.5308 128.853 27.0002C128.853 25.4695 129.152 24.1628 129.749 23.0802C130.365 21.9975 131.205 21.1668 132.269 20.5882C133.352 20.0095 134.602 19.7202 136.021 19.7202ZM136.021 22.5762C134.976 22.5762 134.154 22.9495 133.557 23.6962C132.978 24.4242 132.689 25.5255 132.689 27.0002C132.689 28.4748 132.978 29.5855 133.557 30.3322C134.154 31.0602 134.976 31.4242 136.021 31.4242C137.048 31.4242 137.85 31.0602 138.429 30.3322C139.026 29.5855 139.325 28.4748 139.325 27.0002C139.325 25.5255 139.026 24.4242 138.429 23.6962C137.85 22.9495 137.048 22.5762 136.021 22.5762Z" fill="#101828"/>
<path d="M150.179 13.8682V29.6882C150.179 30.3415 150.291 30.7988 150.515 31.0602C150.739 31.3215 151.112 31.4522 151.635 31.4522C151.952 31.4522 152.213 31.4335 152.419 31.3962C152.624 31.3588 152.885 31.2842 153.203 31.1722L152.867 33.6922C152.549 33.8788 152.148 34.0188 151.663 34.1122C151.196 34.2242 150.729 34.2802 150.263 34.2802C148.9 34.2802 147.901 33.9535 147.267 33.3002C146.651 32.6282 146.343 31.5642 146.343 30.1082V13.8682H150.179Z" fill="#101828"/>
<path d="M161.836 34.2802C159.634 34.2802 157.87 33.6455 156.544 32.3762C155.219 31.0882 154.556 29.2962 154.556 27.0002C154.556 25.4695 154.855 24.1628 155.452 23.0802C156.05 21.9975 156.88 21.1668 157.944 20.5882C159.027 20.0095 160.259 19.7202 161.64 19.7202C163.059 19.7202 164.263 20.0095 165.252 20.5882C166.242 21.1482 166.998 21.9228 167.52 22.9122C168.043 23.8828 168.304 24.9935 168.304 26.2442C168.304 26.6175 168.295 26.9722 168.276 27.3082C168.258 27.6442 168.23 27.9428 168.192 28.2042H158.308C158.458 29.2868 158.831 30.0988 159.428 30.6402C160.044 31.1628 160.838 31.4242 161.808 31.4242C162.63 31.4242 163.292 31.2655 163.796 30.9482C164.3 30.6308 164.692 30.1922 164.972 29.6322L168.024 30.8082C167.576 31.9095 166.792 32.7682 165.672 33.3842C164.552 33.9815 163.274 34.2802 161.836 34.2802ZM161.612 22.5482C159.802 22.5482 158.71 23.5468 158.336 25.5442H164.636C164.524 24.5735 164.207 23.8362 163.684 23.3322C163.18 22.8095 162.49 22.5482 161.612 22.5482Z" fill="#101828"/>
<path d="M177.155 34.2802C175.736 34.2802 174.439 34.0282 173.263 33.5242C172.106 33.0202 171.163 32.3108 170.435 31.3962L172.647 29.1562C173.095 29.8282 173.692 30.3788 174.439 30.8082C175.186 31.2375 176.072 31.4522 177.099 31.4522C177.827 31.4522 178.406 31.3495 178.835 31.1442C179.283 30.9202 179.507 30.5748 179.507 30.1082C179.507 29.8095 179.404 29.5575 179.199 29.3522C178.994 29.1282 178.583 28.9508 177.967 28.8202L175.503 28.3162C173.879 27.9802 172.722 27.4762 172.031 26.8042C171.359 26.1135 171.023 25.2268 171.023 24.1442C171.023 23.3788 171.247 22.6602 171.695 21.9882C172.162 21.3162 172.852 20.7748 173.767 20.3642C174.682 19.9348 175.82 19.7202 177.183 19.7202C180.02 19.7202 182.055 20.5882 183.287 22.3242L180.991 24.5642C180.58 23.9108 180.039 23.4162 179.367 23.0802C178.714 22.7255 178.023 22.5482 177.295 22.5482C175.652 22.5482 174.831 23.0055 174.831 23.9202C174.831 24.2188 174.962 24.4802 175.223 24.7042C175.484 24.9095 175.96 25.0868 176.651 25.2362L179.507 25.8242C180.888 26.1042 181.878 26.5802 182.475 27.2522C183.072 27.9055 183.371 28.6988 183.371 29.6322C183.371 30.9762 182.83 32.0868 181.747 32.9642C180.683 33.8415 179.152 34.2802 177.155 34.2802Z" fill="#101828"/>
</svg>
